<svg xmlns="http://www.w3.org/2000/svg" viewBox="0 0 1080 1080"><defs><style>.cls-1{fill:#fff;}.cls-2{fill:#699bf7;}.cls-3{fill:#f9f9f9;}.cls-4{fill:#797a7a;}</style></defs><title>seusappLogo</title><g id="Capa_10" data-name="Capa 10"><rect class="cls-1" x="27" y="32" width="1031" height="1031" rx="119.37"/></g><g id="S_US" data-name="S US"><path d="M70.41,858.39v35.24c0,13.34,5.92,19,13.88,19,8.84,0,14.5-5.83,14.5-19V858.39h7.78V893.1c0,18.29-9.64,25.79-22.54,25.79-12.2,0-21.4-7-21.4-25.43V858.39Z"/><path d="M119.65,886.75c0-4.42-.08-8-.35-11.58h6.9l.44,7.07h.18a15.74,15.74,0,0,1,14.14-8c5.92,0,15.12,3.54,15.12,18.2v25.52H148.3V893.28c0-6.89-2.57-12.63-9.9-12.63a11.06,11.06,0,0,0-10.44,8,11.27,11.27,0,0,0-.53,3.62v25.7h-7.78Z"/><path d="M177.39,863.16c.08,2.65-1.86,4.77-5,4.77a4.62,4.62,0,0,1-4.68-4.77,4.73,4.73,0,0,1,4.86-4.85A4.62,4.62,0,0,1,177.39,863.16Zm-8.67,54.76V875.17h7.78v42.75Z"/><path d="M192.42,875.17l8.39,24a107.16,107.16,0,0,1,3.45,10.95h.27c1-3.53,2.21-7.07,3.62-10.95l8.31-24h8.14l-16.8,42.75h-7.43L184.1,875.17Z"/><path d="M235.38,898c.18,10.51,6.9,14.84,14.68,14.84a28,28,0,0,0,11.84-2.21l1.33,5.56A34.63,34.63,0,0,1,249,918.8c-13.18,0-21-8.65-21-21.55s7.6-23,20.06-23c14,0,17.69,12.28,17.69,20.14a28.67,28.67,0,0,1-.27,3.62Zm22.81-5.56c.09-4.95-2-12.63-10.78-12.63-7.87,0-11.32,7.24-11.94,12.63Z"/><path d="M275.34,888.51c0-5-.09-9.36-.35-13.34h6.81l.26,8.4h.36c1.94-5.75,6.63-9.37,11.84-9.37a8.2,8.2,0,0,1,2.21.27v7.33a11.44,11.44,0,0,0-2.65-.27c-5.48,0-9.37,4.15-10.43,10a21.52,21.52,0,0,0-.36,3.62v22.79h-7.69Z"/><path d="M303.19,910a20.44,20.44,0,0,0,10.26,3.09c5.65,0,8.31-2.82,8.31-6.36,0-3.7-2.21-5.74-8-7.86-7.69-2.73-11.32-7-11.32-12.09,0-6.89,5.57-12.55,14.77-12.55a21.42,21.42,0,0,1,10.52,2.65l-1.95,5.66a16.64,16.64,0,0,0-8.75-2.48c-4.6,0-7.16,2.65-7.16,5.83,0,3.53,2.56,5.12,8.13,7.24,7.43,2.83,11.23,6.54,11.23,12.9,0,7.5-5.83,12.8-16,12.8a24.34,24.34,0,0,1-12-2.91Z"/><path d="M347.93,863.16a4.82,4.82,0,0,1-9.64,0,4.73,4.73,0,0,1,4.86-4.85A4.62,4.62,0,0,1,347.93,863.16Zm-8.67,54.76V875.17H347v42.75Z"/><path d="M396.91,855.21v51.67c0,3.8.08,8.13.35,11h-7l-.35-7.42h-.18c-2.38,4.77-7.6,8.39-14.58,8.39-10.35,0-18.3-8.74-18.3-21.72-.09-14.22,8.75-23,19.18-23,6.54,0,11,3.09,12.91,6.54h.18V855.21Zm-7.78,37.36a13.41,13.41,0,0,0-.36-3.26,11.44,11.44,0,0,0-11.23-9c-8,0-12.82,7.06-12.82,16.51,0,8.66,4.25,15.81,12.65,15.81a11.68,11.68,0,0,0,11.4-9.27,13.27,13.27,0,0,0,.36-3.36Z"/><path d="M433.51,917.92l-.62-5.39h-.27a15.93,15.93,0,0,1-13.08,6.36c-8.67,0-13.09-6.09-13.09-12.27,0-10.34,9.2-16,25.73-15.9v-.88c0-3.54-1-9.9-9.72-9.9a21.35,21.35,0,0,0-11.14,3.18L409.55,878a26.6,26.6,0,0,1,14.05-3.8c13.09,0,16.27,8.92,16.27,17.49v16a60.06,60.06,0,0,0,.71,10.24Zm-1.15-21.81c-8.49-.18-18.13,1.32-18.13,9.62,0,5,3.36,7.42,7.34,7.42A10.65,10.65,0,0,0,431.92,906a8.3,8.3,0,0,0,.44-2.47Z"/><path d="M489.38,855.21v51.67c0,3.8.09,8.13.35,11h-7l-.35-7.42h-.18c-2.39,4.77-7.6,8.39-14.59,8.39-10.34,0-18.3-8.74-18.3-21.72-.09-14.22,8.75-23,19.19-23,6.54,0,11,3.09,12.9,6.54h.18V855.21Zm-7.78,37.36a13.91,13.91,0,0,0-.35-3.26,11.44,11.44,0,0,0-11.23-9c-8,0-12.82,7.06-12.82,16.51,0,8.66,4.24,15.81,12.64,15.81a11.7,11.7,0,0,0,11.41-9.27,13.76,13.76,0,0,0,.35-3.36Z"/><path d="M558,855.21v51.67c0,3.8.08,8.13.35,11h-7L551,910.5h-.17c-2.39,4.77-7.61,8.39-14.59,8.39-10.35,0-18.3-8.74-18.3-21.72-.09-14.22,8.75-23,19.18-23,6.54,0,11,3.09,12.91,6.54h.18V855.21Zm-7.78,37.36a13.41,13.41,0,0,0-.36-3.26,11.43,11.43,0,0,0-11.22-9c-8,0-12.83,7.06-12.83,16.51,0,8.66,4.25,15.81,12.65,15.81a11.68,11.68,0,0,0,11.4-9.27,13.27,13.27,0,0,0,.36-3.36Z"/><path d="M575.23,898c.17,10.51,6.89,14.84,14.67,14.84a28.12,28.12,0,0,0,11.85-2.21l1.32,5.56a34.59,34.59,0,0,1-14.23,2.65c-13.17,0-21-8.65-21-21.55s7.6-23,20.07-23c14,0,17.68,12.28,17.68,20.14a28.67,28.67,0,0,1-.27,3.62ZM598,892.4c.08-4.95-2-12.63-10.79-12.63-7.87,0-11.32,7.24-11.94,12.63Z"/><path d="M665.05,890H641.89v21.46H667.7v6.45H634.19V858.39h32.19v6.45H641.89v18.81h23.16Z"/><path d="M677.43,855.21h7.78v62.71h-7.78Z"/><path d="M716.24,908.56A27.23,27.23,0,0,0,730,912.45c7.87,0,12.46-4.16,12.46-10.16,0-5.57-3.18-8.75-11.22-11.84-9.73-3.44-15.74-8.47-15.74-16.87,0-9.27,7.69-16.16,19.27-16.16,6.1,0,10.52,1.42,13.18,2.92l-2.13,6.27a23.7,23.7,0,0,0-11.31-2.83c-8.14,0-11.23,4.86-11.23,8.92,0,5.57,3.62,8.3,11.85,11.48,10.07,3.89,15.2,8.75,15.2,17.49,0,9.19-6.81,17.13-20.86,17.13-5.75,0-12-1.67-15.21-3.79Z"/><path d="M784.58,917.92l-.62-5.39h-.27a15.93,15.93,0,0,1-13.08,6.36c-8.67,0-13.09-6.09-13.09-12.27,0-10.34,9.2-16,25.73-15.9v-.88c0-3.54-1-9.9-9.72-9.9a21.35,21.35,0,0,0-11.14,3.18L760.62,878a26.6,26.6,0,0,1,14-3.8c13.09,0,16.27,8.92,16.27,17.49v16a60.06,60.06,0,0,0,.71,10.24Zm-1.15-21.81c-8.49-.18-18.13,1.32-18.13,9.62,0,5,3.36,7.42,7.34,7.42A10.65,10.65,0,0,0,783,906a8.3,8.3,0,0,0,.44-2.47Z"/><path d="M803.5,855.21h7.78v62.71H803.5Z"/><path d="M827.37,875.17l8.39,24a107.16,107.16,0,0,1,3.45,10.95h.27c1-3.53,2.21-7.07,3.62-10.95l8.31-24h8.14l-16.8,42.75h-7.43l-16.26-42.75Z"/><path d="M890.22,917.92l-.62-5.39h-.26a15.93,15.93,0,0,1-13.09,6.36c-8.66,0-13.08-6.09-13.08-12.27,0-10.34,9.2-16,25.73-15.9v-.88c0-3.54-1-9.9-9.73-9.9A21.37,21.37,0,0,0,868,883.12L866.26,878a26.66,26.66,0,0,1,14.06-3.8c13.09,0,16.27,8.92,16.27,17.49v16a60.06,60.06,0,0,0,.71,10.24Zm-1.15-21.81c-8.48-.18-18.12,1.32-18.12,9.62,0,5,3.36,7.42,7.34,7.42A10.64,10.64,0,0,0,888.63,906a8,8,0,0,0,.44-2.47Z"/><path d="M946.1,855.21v51.67c0,3.8.09,8.13.35,11h-7l-.36-7.42h-.17c-2.39,4.77-7.61,8.39-14.59,8.39-10.34,0-18.3-8.74-18.3-21.72-.09-14.22,8.75-23,19.18-23,6.55,0,11,3.09,12.91,6.54h.18V855.21Zm-7.78,37.36a13.41,13.41,0,0,0-.36-3.26,11.42,11.42,0,0,0-11.22-9c-8,0-12.82,7.06-12.82,16.51,0,8.66,4.24,15.81,12.64,15.81a11.68,11.68,0,0,0,11.4-9.27,13.27,13.27,0,0,0,.36-3.36Z"/><path d="M997.73,896.19c0,15.81-11,22.7-21.31,22.7-11.58,0-20.51-8.48-20.51-22,0-14.31,9.37-22.7,21.22-22.7C989.42,874.2,997.73,883.12,997.73,896.19Zm-34,.45c0,9.36,5.39,16.42,13,16.42,7.42,0,13-7,13-16.6,0-7.24-3.62-16.43-12.82-16.43S963.78,888.51,963.78,896.64Z"/><path d="M1007.54,888.51c0-5-.08-9.36-.35-13.34H1014l.26,8.4h.36c1.94-5.75,6.63-9.37,11.84-9.37a8.2,8.2,0,0,1,2.21.27v7.33a11.44,11.44,0,0,0-2.65-.27c-5.48,0-9.37,4.15-10.43,10a21.58,21.58,0,0,0-.35,3.62v22.79h-7.7Z"/><path d="M147.44,757.25a107.91,107.91,0,0,0,54.6,15.4c31.16,0,49.36-16.45,49.36-40.25,0-22-12.6-34.65-44.45-46.9-38.51-13.65-62.31-33.61-62.31-66.86,0-36.75,30.45-64,76.31-64,24.15,0,41.65,5.6,52.15,11.55L264.7,591a94,94,0,0,0-44.8-11.2c-32.2,0-44.45,19.25-44.45,35.35,0,22.06,14.34,32.9,46.9,45.51,39.9,15.39,60.2,34.65,60.2,69.3,0,36.4-27,67.9-82.6,67.9-22.75,0-47.61-6.65-60.21-15.05Z"/><path d="M639.57,557.62V697.27c0,52.85,23.45,75.25,54.95,75.25,35,0,57.4-23.1,57.4-75.25V557.62h30.8V695.17c0,72.45-38.15,102.2-89.25,102.2-48.3,0-84.7-27.65-84.7-100.8v-139Z"/><path d="M814.27,755.46a107.81,107.81,0,0,0,54.6,15.41c31.15,0,49.35-16.46,49.35-40.26,0-22.05-12.6-34.65-44.45-46.9-38.5-13.65-62.3-33.6-62.3-66.85,0-36.75,30.45-64.05,76.3-64.05,24.15,0,41.65,5.6,52.15,11.55l-8.4,24.85a94,94,0,0,0-44.8-11.2c-32.2,0-44.45,19.25-44.45,35.35,0,22,14.35,32.9,46.9,45.5,39.9,15.4,60.2,34.65,60.2,69.3,0,36.4-27,67.91-82.6,67.91-22.75,0-47.6-6.65-60.2-15.05Z"/></g><g id="Capa_9" data-name="Capa 9"><rect class="cls-2" x="303" y="362" width="290" height="440"/><g id="App"><path class="cls-1" d="M451.89,734.74q0,4,.47,11.83t.46,11.78c0,1.38-.6,2.12-1.81,2.22q-6.4.46-14.67.47c-.66,0-1.09-1-1.32-3s-.49-3-.8-3a4.81,4.81,0,0,0-1.08.88q-5.79,5.85-12.41,5.84a20.81,20.81,0,0,1-16.69-8A26.8,26.8,0,0,1,397.79,736q0-11.94,6.46-19.22,6.72-7.54,18.4-7.55,8.1,0,12.81,5.69c.14.17.26.26.36.26.31,0,.67-.84,1.06-2.51s.87-2.51,1.42-2.51a46.07,46.07,0,0,1,7.29,1.09,72.34,72.34,0,0,1,7.34,1.76c.51.2.77.48.77.82a9.66,9.66,0,0,1-.15,1.09A112.79,112.79,0,0,0,451.89,734.74Zm-16.64.31a10,10,0,0,0-2.76-7.26,10.49,10.49,0,0,0-14.39,0,10.07,10.07,0,0,0-2.74,7.29,10,10,0,0,0,2.89,7.18,9.42,9.42,0,0,0,7,3,9.58,9.58,0,0,0,7.18-2.87A10,10,0,0,0,435.25,735.05Z"/><path class="cls-1" d="M519.17,735.72q0,11.06-6.51,18.34-6.72,7.55-17.62,7.55a21.61,21.61,0,0,1-8.53-2q-4.54-2-4.13-2c-.45,0-.67.52-.67,1.55,0,1.76.08,4.4.26,7.93s.25,6.18.25,7.93a1.48,1.48,0,0,1-1.7,1.66l-10.54,0a24.76,24.76,0,0,1-4.6-.26,1.8,1.8,0,0,1-1.55-1.91l.1-39.79a96.47,96.47,0,0,0-1.81-20.3,4.54,4.54,0,0,1-.1-.88,1,1,0,0,1,.62-1,45.09,45.09,0,0,1,7.7-1.65,57.33,57.33,0,0,1,8-.88c1.34,0,2.11.89,2.3,2.66s.42,2.66.7,2.66c-.35,0,1.12-.93,4.41-2.81a18.42,18.42,0,0,1,9-2.82q11.2,0,17.93,7.39Q519.17,724.3,519.17,735.72Zm-19.17-.1a11.15,11.15,0,0,0-2.53-7.24,8.52,8.52,0,0,0-6.77-3.25,7.91,7.91,0,0,0-6.62,3.25,11.93,11.93,0,0,0-2.17,7.24,11.41,11.41,0,0,0,2.28,7.28,8,8,0,0,0,6.71,3.15Q500,746.05,500,735.62Z"/><path class="cls-1" d="M582.88,735.72q0,11.06-6.51,18.34-6.72,7.55-17.62,7.55a21.61,21.61,0,0,1-8.53-2q-4.54-2-4.13-2c-.45,0-.67.52-.67,1.55,0,1.76.08,4.4.26,7.93s.25,6.18.25,7.93a1.48,1.48,0,0,1-1.7,1.66l-10.54,0a24.76,24.76,0,0,1-4.6-.26,1.8,1.8,0,0,1-1.55-1.91l.1-39.79a96.47,96.47,0,0,0-1.81-20.3,4.54,4.54,0,0,1-.1-.88,1,1,0,0,1,.62-1,45.09,45.09,0,0,1,7.7-1.65,57.33,57.33,0,0,1,8-.88c1.34,0,2.11.89,2.3,2.66s.42,2.66.7,2.66c-.35,0,1.12-.93,4.41-2.81a18.42,18.42,0,0,1,9-2.82q11.2,0,17.93,7.39Q582.88,724.3,582.88,735.72Zm-19.17-.1a11.1,11.1,0,0,0-2.53-7.24,8.51,8.51,0,0,0-6.77-3.25,7.91,7.91,0,0,0-6.62,3.25,11.93,11.93,0,0,0-2.16,7.24,11.41,11.41,0,0,0,2.27,7.28,8,8,0,0,0,6.72,3.15Q563.71,746.05,563.71,735.62Z"/></g><path class="cls-1" d="M357,693l20-24c6-2,14-36,14-36,1-2,7-3,7-3,2,0,9-4,9-4,3-2,17-19,17-19a61.25,61.25,0,0,1,6-4c2-1,0-5,0-5-1-2-18-6-18-6l-10-1c-1.5.5,3.5,3.5,3.5,3.5,1,0,11,3,11,3,2,0,2,3,2,3,0,1-6,9-6,9-1,3-11,13-11,13-1,3-12,7-12,7l-16,37Z"/><path class="cls-1" d="M337,703l20-19c3-3,13-32,13-32,1-4,6-18,6-18,3-6,9-13,9-13,0-2-3,0-3,0l-14,16c-.5,1.5-11.5,30.5-11.5,30.5,0,2-6,17-6,17Z"/><path class="cls-3" d="M315,721l9-8,9-14c2-4,11-20,11-20,0-6,15-42,15-42,0-3,12-17,12-17,0-2-4,1-4,1-2,2-21,18-21,18-3.5,3.5-8.5,29.5-8.5,29.5,0,3-1,10-1,10-1,3-10,19-10,19-1,1-12,16-12,16-1,1-2,4-2,4,1,0,5-3,5-3l4-5,3-4c2-2,1,1,1,1,0,1-10,12-11,13-2,2,0,2,0,2Z"/><path class="cls-1" d="M358,609s13.07,5.18,18,6c6,1,22-4,22-4,1-1-1-1-1-1-3.5.5-23.5.5-23.5.5-2,0-13-2-13-2l-1-1a3.49,3.49,0,0,0-2,1Z"/><path class="cls-1" d="M357,605l-15-4-9-6c0-1,2-1,2-1,2.5.5,10.5,6.5,10.5,6.5,1,0,1-2,1-2l-6-3c-1-1,4-1,4-1,1,1,13,4,13,4a51.3,51.3,0,0,0,10,1c4-1,17-1,17-1,3-1,15,3,15,3a59.23,59.23,0,0,1,6,4c1,0,1,2,1,2l-1.5.5c-2-1-18-4-18-4l-17,1H357"/><path class="cls-1" d="M405.25,598.5c-2.06,1-2.58-.5-2.58-.5-2.06-3-17.53-4-17.53-4-4.12-1-13.4,1-13.4,1-1.83,1.77-14.94.41-17.94.07l-.62-.07a46.51,46.51,0,0,1-8.22-3h-6.21c-2.07,0-11.35-4-11.35-4a48.76,48.76,0,0,1-10.31-6,17.29,17.29,0,0,1-3.09-4,1.46,1.46,0,0,1,2.06,0c1.55,1.5,10.83,7.5,10.83,7.5,2.06,1,7.22,3,7.22,3a5.19,5.19,0,0,0,3.09,1c2.06,0,0-2,0-2-3.09-1-11.34-4-11.34-4a47.49,47.49,0,0,1-6.19-5v-2c1,0,5.16,3,5.16,3,2.06,1,7.21,4,7.21,4,2.07,1,8.25,3,8.25,3l4.13,1,.95,0c2-.07,6.36-.27,10.55-.48l10.15-.5h16.5c6.18-1,13.4,3,13.4,3a61.62,61.62,0,0,1,7.22,6A14.35,14.35,0,0,1,405.25,598.5Z"/><path class="cls-1" d="M476.05,611.24a44.36,44.36,0,0,0,.86-8.74c0-29-27.7-52.5-61.87-52.5-18.87,0-35.77,7.18-47.12,18.49a50.83,50.83,0,0,0-11.54,17.32c-.16.39-.31.79-.46,1.19-4.19.21-8.54.41-10.55.48,1.43-9.76,6.31-18.7,13.66-26.08C371.38,549,390.73,541,412.47,541c.49,0,1,0,1.47,0,36.61.6,66.06,23.87,66.06,52.48A42.06,42.06,0,0,1,476.05,611.24Z"/><path class="cls-1" d="M483,594a45.4,45.4,0,0,0-.25-8.78c-3.64-28.76-34.06-48.61-68-44.32l-.81.11c-.49,0-1,0-1.47,0-21.74,0-41.09,8-53.44,20.4,10.42-14.93,29.36-26.22,52-29.09,37-4.68,69.95,14.84,73.59,43.6A42.17,42.17,0,0,1,483,594Z"/></g><g id="Capa_12" data-name="Capa 12"><path class="cls-1" d="M369.39,716.58s8.88-4.91,12-7S388,703,388,703l13-13s9-10,8-9l9-9c6-4,15-4,15-4,6,1,12-2,12-2,3-1,4-6,4-6,.5-1.5-.5-8.5-.5-8.5-1-1-2-4-2-4-1-2,0-8,0-8,1-1,4-5,4-5-2-4-13-14-13-14a6.46,6.46,0,0,1-3-5c1-1-6-8-6-8l-.09-.09a1.78,1.78,0,0,0-2.06-.33l-.85.42c-2,2,2,6,2,6,1,0-6,6-6,6-1,2,1,2,1,2a20.34,20.34,0,0,0,5,1,12.92,12.92,0,0,1,6,1,6.56,6.56,0,0,1,3,3c1,1,4,5,4,5,1,1,1,10,1,10,0,1,1,8,1,8,0,1,3,7,3,7,0,1-2,3-2,3a20.09,20.09,0,0,1-6,3c-4.25,1.07-9,2-9,2-.61,0-3.53.13-6,0a89.66,89.66,0,0,1-13-2l-5-2c-1,0,2,3,2,3l5,5c1,1-3,4-3,4-1,1-11,12-11,12-1,1-10,11-10,11-1,2-7,7-7,7-1,1-11,8-11,8l-2,1c-2,2,1,2,1,2l4-2a3.1,3.1,0,0,1,2-1v1l-7,4c-1,2,1.5,1.5,1.5,1.5Z"/><rect class="cls-1" x="463" y="457" width="131" height="76"/><rect class="cls-1" x="463" y="615" width="132" height="76"/></g><g id="Hand"><path class="cls-4" d="M496,507c2-7,24-55,24-55l21-48c1-7,15-50,15-50,1-3-1-2-1-2H367V286c-1-10,10-16,10-16L561,160c4-2,47-48,47-48,2-1,140,107,140,107,3,4-14,78-14,78-2,12-19,35-19,35l-20,17c-1,3-30,18-30,18-14,4-30,25-30,25a199.15,199.15,0,0,0-8,19c-7.71,22.25-18,56-18,56l-18,50c-2,7-9,22-9,22-7.84,10-16.51,22.88-28,28-14.89,6.63-32,4-32,4-25-7-27-35-27-35C493,527,496,507,496,507Z"/><path class="cls-4" d="M598,519l19-53c3,0,44,28,44,28,11,15,3,31,3,31-6,13-27,10-27,10-2,0-39-15-39-15Z"/><path class="cls-4" d="M623,462l31,20a20.09,20.09,0,0,0,11,3,27.6,27.6,0,0,0,9-2c18-11,11-31,11-31-3-9-50-36-50-36-2-1-15,37-15,37C619,460,623,462,623,462Z"/></g></svg>