<svg width="693" height="215" viewBox="0 0 693 215" fill="none" xmlns="http://www.w3.org/2000/svg">
<rect width="693" height="215" fill="#784CFB"/>
<path d="M297.826 188.5C297.298 188.463 296.792 188.282 296.373 187.98C295.953 187.677 295.638 187.267 295.466 186.799L292.01 179.545C291.794 179.09 291.519 178.884 291.356 178.884H285.804C285.555 178.884 285.317 178.792 285.141 178.627C284.965 178.463 284.866 178.241 284.866 178.009C284.866 177.777 284.965 177.554 285.141 177.39C285.317 177.226 285.555 177.134 285.804 177.134H291.356C291.886 177.169 292.393 177.349 292.814 177.652C293.235 177.954 293.551 178.366 293.724 178.835L297.172 186.088C297.389 186.545 297.656 186.75 297.826 186.75C297.991 186.75 298.256 186.552 298.471 186.106L306.688 169.173C306.86 168.708 307.175 168.301 307.595 168.003C308.015 167.705 308.52 167.53 309.046 167.5C309.576 167.538 310.081 167.72 310.501 168.023C310.921 168.326 311.237 168.738 311.409 169.206L314.857 176.471C315.063 176.906 315.343 177.134 315.511 177.134H321.189C321.437 177.134 321.676 177.226 321.852 177.39C322.027 177.554 322.126 177.777 322.126 178.009C322.126 178.241 322.027 178.463 321.852 178.627C321.676 178.792 321.437 178.884 321.189 178.884H315.519C314.988 178.848 314.48 178.667 314.059 178.364C313.638 178.06 313.322 177.648 313.151 177.177L309.702 169.913C309.485 169.457 309.217 169.252 309.046 169.25C308.881 169.25 308.617 169.45 308.401 169.894L300.179 186.827C300.005 187.29 299.689 187.695 299.271 187.992C298.853 188.289 298.351 188.466 297.826 188.5Z" fill="#CCCCCC"/>
<path d="M621.826 143.5C621.298 143.463 620.792 143.282 620.373 142.98C619.953 142.677 619.638 142.267 619.466 141.799L616.01 134.545C615.794 134.09 615.519 133.884 615.356 133.884H609.804C609.555 133.884 609.317 133.792 609.141 133.627C608.965 133.463 608.866 133.241 608.866 133.009C608.866 132.777 608.965 132.554 609.141 132.39C609.317 132.226 609.555 132.134 609.804 132.134H615.356C615.886 132.169 616.393 132.349 616.814 132.652C617.235 132.954 617.551 133.366 617.724 133.835L621.172 141.088C621.389 141.545 621.656 141.75 621.826 141.75C621.991 141.75 622.256 141.552 622.471 141.106L630.687 124.173C630.86 123.708 631.175 123.301 631.595 123.003C632.015 122.705 632.52 122.53 633.046 122.5C633.576 122.538 634.081 122.72 634.501 123.023C634.921 123.326 635.237 123.738 635.409 124.206L638.857 131.471C639.063 131.906 639.342 132.134 639.511 132.134H645.189C645.437 132.134 645.676 132.226 645.852 132.39C646.027 132.554 646.126 132.777 646.126 133.009C646.126 133.241 646.027 133.463 645.852 133.627C645.676 133.792 645.437 133.884 645.189 133.884H639.519C638.988 133.848 638.48 133.667 638.059 133.364C637.638 133.06 637.322 132.648 637.151 132.177L633.702 124.913C633.485 124.457 633.217 124.252 633.046 124.25C632.881 124.25 632.617 124.45 632.401 124.894L624.179 141.827C624.005 142.29 623.689 142.695 623.271 142.992C622.853 143.289 622.351 143.466 621.826 143.5Z" fill="#CCCCCC"/>
<g clip-path="url(#clip0_1_4)">
<path d="M157.038 176.716L136.395 169.11C135.959 168.95 135.478 168.969 135.056 169.163C134.635 169.358 134.308 169.712 134.147 170.147L127.925 187.037C127.764 187.473 127.783 187.954 127.978 188.376C128.172 188.797 128.526 189.124 128.962 189.284L149.605 196.89C150.041 197.05 150.522 197.031 150.944 196.837C151.365 196.642 151.692 196.288 151.853 195.853L158.075 178.963C158.236 178.527 158.217 178.046 158.022 177.624C157.828 177.203 157.474 176.876 157.038 176.716ZM150.445 195.334C150.422 195.396 150.375 195.447 150.315 195.475C150.255 195.503 150.186 195.505 150.124 195.482L129.48 187.877C129.418 187.854 129.368 187.807 129.34 187.747C129.312 187.687 129.309 187.618 129.332 187.556L135.555 170.666C135.578 170.604 135.625 170.553 135.685 170.525C135.745 170.497 135.814 170.495 135.876 170.518L156.52 178.123C156.582 178.146 156.632 178.193 156.66 178.253C156.688 178.313 156.691 178.382 156.668 178.444L150.445 195.334Z" fill="#CCCCCC"/>
</g>
<g clip-path="url(#clip1_1_4)">
<path d="M583 35.6429H568C566.619 35.6429 565.5 36.6342 565.5 37.8571V51.1429C565.5 52.3658 566.619 53.3571 568 53.3571H583C584.381 53.3571 585.5 52.3658 585.5 51.1429V37.8571C585.5 36.6342 584.381 35.6429 583 35.6429Z" stroke="#CCCCCC" stroke-width="2.28571" stroke-linecap="round" stroke-linejoin="round"/>
<path d="M570.5 35.6429V30.1071M580.5 35.6429V30.1071M565.5 48.9286H559.25M565.5 40.0714H559.25M580.5 53.3571V58.8929M570.5 53.3571V58.8929M585.5 40.0714H591.75M585.5 48.9286H591.75M579.25 45.6071H574.25" stroke="#CCCCCC" stroke-width="2.28571" stroke-linecap="round" stroke-linejoin="round"/>
</g>
<path d="M103.693 58.8943L101.109 53.9989M112.537 54.2259L109.953 49.3305M105.474 72.9776L99.9469 75.8954M101.339 65.1449L95.812 68.0627M120.807 69.8914L123.391 74.7868M111.963 74.5598L114.547 79.4553M119.026 55.8081L124.553 52.8903M123.161 63.6408L128.688 60.723M116.083 63.6213L111.661 65.9555" stroke="#CCCCCC" stroke-width="2.28571" stroke-linecap="round" stroke-linejoin="round"/>
<path d="M533.609 174.303L527.156 173.743L524.636 167.81C524.183 166.73 522.636 166.73 522.183 167.81L519.663 173.757L513.223 174.303C512.049 174.397 511.569 175.863 512.463 176.637L517.356 180.877L515.889 187.17C515.623 188.317 516.863 189.223 517.876 188.61L523.409 185.277L528.943 188.623C529.956 189.237 531.196 188.33 530.929 187.183L529.463 180.877L534.356 176.637C535.249 175.863 534.783 174.397 533.609 174.303ZM523.409 182.783L518.396 185.81L519.729 180.103L515.303 176.263L521.143 175.757L523.409 170.383L525.689 175.77L531.529 176.277L527.103 180.117L528.436 185.823L523.409 182.783Z" fill="#CCCCCC"/>
<path d="M57.1259 170.43L51.3642 173.39L46.0732 169.707C45.1147 169.034 43.8052 169.857 43.9961 171.013L45.027 177.388L39.8654 181.278C38.9217 181.982 39.2958 183.479 40.4636 183.658L46.8629 184.644L48.9701 190.753C49.3545 191.866 50.8868 191.973 51.4184 190.915L54.3294 185.148L60.7951 185.037C61.9794 185.017 62.5468 183.59 61.7109 182.761L57.1131 178.202L58.9998 172.008C59.3446 170.878 58.169 169.884 57.1259 170.43ZM53.0026 183.037L50.3686 188.268L48.4608 182.726L42.6695 181.831L47.3443 178.294L46.4041 172.539L51.2009 175.886L56.415 173.207L54.7105 178.814L58.8762 182.936L53.0026 183.037Z" fill="#CCCCCC"/>
<path d="M426 154C433.18 154 439 148.18 439 141C439 133.82 433.18 128 426 128C418.82 128 413 133.82 413 141C413 148.18 418.82 154 426 154Z" stroke="#CCCCCC" stroke-width="2" stroke-miterlimit="10"/>
<path d="M428 139C428.828 139 429.5 138.328 429.5 137.5C429.5 136.672 428.828 136 428 136C427.172 136 426.5 136.672 426.5 137.5C426.5 138.328 427.172 139 428 139Z" fill="#CCCCCC"/>
<path d="M428.5 134.5C429.328 134.5 430 133.828 430 133C430 132.172 429.328 131.5 428.5 131.5C427.672 131.5 427 132.172 427 133C427 133.828 427.672 134.5 428.5 134.5Z" fill="#CCCCCC"/>
<path d="M432.5 137C433.328 137 434 136.328 434 135.5C434 134.672 433.328 134 432.5 134C431.672 134 431 134.672 431 135.5C431 136.328 431.672 137 432.5 137Z" fill="#CCCCCC"/>
<path d="M32 24.6667L17.3333 50H46.6667M32 30L42.04 47.3333H21.96" fill="#CCCCCC" fill-opacity="0.79"/>
<path d="M43.9238 112.372L65.8248 131.795L71.6725 103.05M49.1501 113.435L68.1371 107.052L64.134 126.729" fill="#CCCCCC" fill-opacity="0.79"/>
<defs>
<clipPath id="clip0_1_4">
<rect width="32" height="32" fill="white" transform="translate(133.518 162.455) rotate(20.2249)"/>
</clipPath>
<clipPath id="clip1_1_4">
<rect width="35" height="31" fill="white" transform="translate(558 29)"/>
</clipPath>
</defs>
</svg>
